Coordinates
version=1
nRows=32
nColumns=12
inDegrees=yes

Units are S.I. units (second, meters, Newtons, ...)
Angles are in degrees

endheader
time	SC_y	SC_z	SC_x	AC_y	AC_z	AC_x	GH_y	GH_z	GH_yy	EL_x	PS_y
       0.0              -16.57          28.48          74.38          48.77           4.07         -3.545          120.4          23.54         -66.86          11.15          156.4
   0.03969              -16.58          28.47          74.38          48.77          4.068         -3.544          120.4          23.54         -66.86          11.16          156.3
   0.07937              -16.58          28.47          74.38          48.77          4.067         -3.542          120.4          23.54         -66.87          11.17          156.3
    0.1191              -16.58          28.47          74.37          48.77          4.065          -3.54          120.3          23.54         -66.87          11.18          156.3
    0.1587              -16.58          28.47          74.37          48.77          4.064         -3.538          120.3          23.54         -66.88          11.19          156.3
    0.1984              -16.59          28.47          74.37          48.77          4.062         -3.536          120.3          23.54         -66.88           11.2          156.2
    0.2381              -16.59          28.47          74.37          48.77           4.06         -3.534          120.3          23.54         -66.89          11.21          156.2
    0.2778              -16.59          28.47          74.36          48.77          4.058         -3.532          120.3          23.54          -66.9          11.22          156.2
    0.3175               -16.6          28.47          74.36          48.77          4.056          -3.53          120.3          23.54          -66.9          11.23          156.2
    0.3572               -16.6          28.47          74.36          48.77          4.053         -3.527          120.2          23.54         -66.91          11.24          156.1
    0.3969               -16.6          28.46          74.35          48.77          4.051         -3.524          120.2          23.54         -66.92          11.26          156.1
    0.4366              -16.61          28.46          74.35          48.77          4.048         -3.521          120.2          23.55         -66.93          11.27          156.0
    0.4762              -16.61          28.46          74.34          48.77          4.045         -3.518          120.2          23.55         -66.94          11.29          156.0
    0.5159              -16.62          28.46          74.34          48.77          4.042         -3.515          120.1          23.55         -66.95           11.3          156.0
    0.5556              -16.62          28.46          74.34          48.77          4.039         -3.511          120.1          23.55         -66.96          11.32          155.9
    0.5953              -16.63          28.45          74.33          48.77          4.035         -3.507          120.1          23.55         -66.97          11.34          155.8
     0.635              -16.63          28.45          74.32          48.77          4.031         -3.502          120.0          23.55         -66.99          11.36          155.8
    0.6747              -16.64          28.45          74.32          48.77          4.027         -3.498          120.0          23.55          -67.0          11.39          155.7
    0.7144              -16.65          28.45          74.31          48.77          4.022         -3.492          120.0          23.55         -67.02          11.41          155.6
     0.754              -16.66          28.44           74.3          48.77          4.017         -3.487          119.9          23.55         -67.03          11.44          155.6
    0.7937              -16.67          28.44          74.29          48.77          4.011          -3.48          119.9          23.55         -67.05          11.47          155.5
    0.8334              -16.68          28.44          74.28          48.77          4.005         -3.473          119.8          23.55         -67.07           11.5          155.4
    0.8731              -16.69          28.43          74.27          48.77          3.998         -3.466          119.7          23.55         -67.09          11.54          155.3
    0.9128               -16.7          28.43          74.26          48.77           3.99         -3.457          119.7          23.55         -67.12          11.58          155.2
    0.9525              -16.71          28.42          74.25          48.77          3.981         -3.448          119.6          23.55         -67.15          11.63          155.0
    0.9922              -16.73          28.42          74.24          48.77          3.972         -3.437          119.5          23.55         -67.18          11.68          154.9
     1.032              -16.74          28.41          74.22          48.77          3.961         -3.425          119.4          23.55         -67.21          11.74          154.7
     1.072              -16.76           28.4           74.2          48.77          3.949         -3.412          119.3          23.55         -67.25           11.8          154.6
     1.111              -16.78          28.39          74.18          48.77          3.936         -3.397          119.2          23.55          -67.3          11.88          154.4
     1.151              -16.81          28.38          74.16          48.77           3.92          -3.38          119.1          23.55         -67.35          11.96          154.1
     1.191              -16.83          28.37          74.13          48.77          3.903          -3.36          118.9          23.55         -67.41          12.06          153.9
      1.23              -16.87          28.36           74.1          48.77          3.882         -3.338          118.7          23.55         -67.47          12.17          153.6
